<?xml version="1.0" encoding="utf-8"?>
<!-- Generator: Adobe Illustrator 24.1.2, SVG Export Plug-In . SVG Version: 6.00 Build 0)  -->
<svg version="1.1" id="Layer_1" xmlns="http://www.w3.org/2000/svg" xmlns:xlink="http://www.w3.org/1999/xlink" x="0px" y="0px"
	 width="707.3px" height="137.4px" viewBox="0 0 707.3 137.4" enable-background="new 0 0 707.3 137.4" xml:space="preserve">
<g>
	<defs>
		<rect id="SVGID_1_" x="-68.1" y="-230.2" width="841.9" height="595.3"/>
	</defs>
	<clipPath id="SVGID_2_">
		<use xlink:href="#SVGID_1_"  overflow="visible"/>
	</clipPath>
	<path clip-path="url(#SVGID_2_)" fill="#010202" d="M688,34c0,5.6,4.4,9.7,9.7,9.7c5.2,0,9.6-4.2,9.6-9.7c0-5.5-4.4-9.6-9.6-9.6
		C692.4,24.4,688,28.5,688,34 M689.8,34c0-4.6,3.4-8.2,7.9-8.2c4.4,0,7.9,3.6,7.9,8.2c0,4.7-3.5,8.3-7.9,8.3
		C693.2,42.3,689.8,38.7,689.8,34 M693.1,39.6V28.4h4.3c1.1,0,1.9,0.1,2.4,0.3c0.5,0.2,0.9,0.6,1.2,1.1c0.3,0.5,0.4,1.1,0.4,1.8
		c0,0.8-0.2,1.5-0.7,2.1c-0.4,0.5-1.1,0.9-2,1c0.4,0.3,0.8,0.6,1.1,0.9c0.3,0.3,0.7,0.9,1.2,1.8l1.2,2.2h-2.5l-1.5-2.4
		c-0.5-0.9-0.9-1.4-1.1-1.6c-0.2-0.2-0.4-0.4-0.6-0.5c-0.2-0.1-0.6-0.1-1-0.1h-0.4v4.7H693.1z M695.2,33.2h1.5c1,0,1.6,0,1.8-0.1
		c0.2-0.1,0.4-0.3,0.6-0.5c0.1-0.2,0.2-0.5,0.2-0.8c0-0.4-0.1-0.7-0.3-0.9c-0.2-0.2-0.4-0.4-0.8-0.4c-0.2,0-0.7,0-1.5,0h-1.6V33.2z"
		/>
	<path clip-path="url(#SVGID_2_)" fill-rule="evenodd" clip-rule="evenodd" fill="#010202" d="M82.6,34.2L82.3,0.2
		c0,0-38-3.9-65.1,24.4C-10.9,54,0.7,96.5,14.9,113.3c14.6,17.2,37.7,28.7,69.1,22.2c32.4-6.7,41-30.8,41-51.5
		C125,59,106.5,36.7,82.6,34.2 M62.3,120.7c-19.1-2.5-31.2-10.8-40.6-27.7c-9.8-17.4-10.2-68.6,44.5-76.5v17.7c0,0-20.2,1.7-30,19
		c-10,17.8-0.6,37.2,11.7,44.6c13.5,8.1,27,5.9,34.9,4.8V50.9c0,0,25.6,5.2,25.8,35.2C108.7,112.5,83.3,123.5,62.3,120.7 M65.9,50.5
		c-5.9,0.2-17.5,4.8-17.4,18.5c-0.1,11.6,8,18.5,17.4,18.6V50.5z"/>
	<path clip-path="url(#SVGID_2_)" fill="#010202" d="M224.5,59.1c-6.8-6.5-16.8-10.1-25.6-10.1c-21.6,0-34.6,16.4-34.6,37.1
		c0,16.5,9.6,33.6,34.6,33.6c7.9,0,14.8-1.7,22.7-8V93.9h-25.7v-17H239v42.4c-9.9,11.4-22.4,18.1-40.1,18.1
		c-37.8,0-53.2-24.9-53.2-51.3c0-28.3,17.7-54.5,53.2-54.5c13.5,0,27,5.2,37.4,15.4L224.5,59.1z"/>
	<path clip-path="url(#SVGID_2_)" fill="#010202" d="M272.4,44.3c0,13.7-20.7,13.7-20.7,0C251.7,30.6,272.4,30.6,272.4,44.3
		 M253.3,135.1h17.5V64h-17.5V135.1z"/>
	<path clip-path="url(#SVGID_2_)" fill="#010202" d="M342.8,64.2h16.8v70.9h-16.5l-0.9-10.3c-4,8.3-15.1,12.4-23,12.5
		c-21,0.1-36.5-12.8-36.5-37.7c0-24.4,16.2-37.2,36.9-37.1c9.5,0,18.5,4.5,22.6,11.5L342.8,64.2z M300.3,99.6
		c0,13.5,9.3,21.6,21,21.6c27.6,0,27.6-43,0-43C309.6,78.2,300.3,86.1,300.3,99.6"/>
	<path clip-path="url(#SVGID_2_)" fill="#010202" d="M426.6,135.1V98c0-10.8-5.9-19-17.1-19c-10.8,0-18.1,9.1-18.1,19.8v36.2H374
		v-71h15.7l1.1,9.6c7.2-7,14.4-10.6,23.3-10.6c16.7,0,30,12.5,30,34.8v37.2H426.6z"/>
	<path clip-path="url(#SVGID_2_)" fill="#010202" d="M511.4,135.1V98c0-10.8-5.9-19-17.1-19c-10.8,0-18.1,9.1-18.1,19.8v36.2h-17.4
		v-71h15.7l1.2,9.6c7.2-7,14.4-10.6,23.3-10.6c16.7,0,30,12.5,30,34.8v37.2H511.4z"/>
	<path clip-path="url(#SVGID_2_)" fill="#010202" d="M563.2,44.3c0,13.7-20.7,13.7-20.7,0C542.5,30.6,563.2,30.6,563.2,44.3
		 M544.1,135.1h17.5V64h-17.5V135.1z"/>
	<path clip-path="url(#SVGID_2_)" fill="#010202" d="M629.6,135.1V98c0-10.8-5.9-19-17.1-19c-10.8,0-18.1,9.1-18.1,19.8v36.2H577
		v-71h15.7l1.1,9.6c7.2-7,14.4-10.6,23.3-10.6c16.7,0,30,12.5,30,34.8v37.2H629.6z"/>
	<path clip-path="url(#SVGID_2_)" fill="#010202" d="M681.3,44.3c0,13.7-20.7,13.7-20.7,0C660.6,30.6,681.3,30.6,681.3,44.3
		 M662.2,135.1h17.5V64h-17.5V135.1z"/>
</g>
</svg>
